<svg viewBox="0 0 335.59 379.03" xmlns="http://www.w3.org/2000/svg"><path d="m86.74 378.74c-22-.51-46.58-12.12-63.09-35.28-44.65-64.56-40.44-343.46 141.35-343.46 174-.86 193.84 216.44 151.35 336.32-9.16 28.11-35 40.64-59.13 40.09-29.09-.67-56.34-19.93-54.84-54.43 1.28-24.83 3.19-46.2 3.64-66.21-20.58-.47-48.25-1.1-75.27 1 .93 21.43 2.5 45.64 5.45 71.95 3.47 32.58-20.37 50.68-49.46 50.02zm120.92-196.83c-.89-85.65-10.89-114.19-31.48-114-17.76.28-39.17 36.4-44.51 115 27.74-2.1 56.12-1.45 75.99-1z" fill="#33b667"/><path d="m16.3 219.25a22.72 22.72 0 0 1 -14.64-23.74c2.5-22.95 9.34-70.84 24.88-99.51 18.46-34 24.35-42.93 35.9-54.66a23.32 23.32 0 0 1 19.37-6.93c8.22 1 16.7 6.81 15.4 26.85a22.23 22.23 0 0 1 -2.31 8.43c-8.5 17.07-43.4 89.63-43.14 128.62.08 11-8.14 20.55-19.29 22.47a30.83 30.83 0 0 1 -16.17-1.53z" fill="#5ebe81"/><path d="m7.88 153.63c2.74-14.2 9.56-43.21 23.13-67.28a25.06 25.06 0 0 1 22.99-12.71c1.15 0 2.33.15 3.52.3a24.14 24.14 0 0 1 19.09 34.06c-6.31 13.51-15.86 36-20.07 56.44a24.07 24.07 0 0 1 -11 15.78c-8.77 5.31-22.07 8.45-34-8.89a23.42 23.42 0 0 1 -3.66-17.7z" fill="#93ca6a"/><ellipse cx="121.04" cy="207.99" fill="#5ebe81" rx="26.38" ry="27.12" transform="matrix(.02286182 -.99973863 .99973863 .02286182 -89.65 324.26)"/><path d="m206.49 159.71 1.2 22.17-30.41-.69s-21.15 15.75-.94 40.86c0 0 65.81 20.09 70.58-17.85s6.18-71.9 6.18-71.9-22.42-25.93-40.11 2a43.16 43.16 0 0 0 -6.5 25.41z" fill="#5ebe81"/><ellipse cx="246.79" cy="132.86" fill="#93ca6a" rx="23.17" ry="23.82" transform="matrix(.02286182 -.99973863 .99973863 .02286182 108.33 376.56)"/><path d="m8.2 302.26s68.87 28.12 123-7.93l1.72-.91 3.3 35.31s5.66 31.49-23.89 45c0 0-26.13 13.62-56.7-2.95 0 0-13.24-6.94-14.88-9.58 0 0-12.14-9.39-17-17.8 0 0-10.47-15.3-16.33-41.26z" fill="#16a64d"/><path d="m205.47 273.27s-6.11 54.06-1.49 65.1l4.62 11s132.3-107.14 120.89-194.14c0 0-58.98 107.43-124.02 118.04z" fill="#16a64d"/><path d="m203 334.58s9.59 43.17 54.2 41.79c0 0 33.19.58 49.3-21.8 0 0 19.34-22 26.51-94.51 0 0 7.26-55.1-2.63-102.11.01.05-16.16 128.67-127.38 176.63z" fill="#128945"/><path d="m193.89 66h-.49c-5.19-.24-9.73-4.47-13.14-12.21 0 0 0 0-.12-.06a.16.16 0 0 0 -.16.05 3.79 3.79 0 0 1 -.34.45c-6.55 7.82-12.84 11.06-18.69 9.63-10.29-2.51-14.09-18.39-14.49-20.19l5.85-1.3c.82 3.62 4.41 14.29 10.07 15.67 4.29 1 9.25-3.59 12.66-7.66a6.18 6.18 0 0 1 10.71 1c2.36 5.36 5.25 8.51 7.93 8.64 2.17.11 6.87-1.61 13.9-14.22l5.24 2.92c-6.48 11.62-12.68 17.28-18.93 17.28z" fill="#231f20"/><ellipse cx="116.07" cy="49.44" fill="#f06724" rx="11.79" ry="15.59" transform="matrix(.02286182 -.99973863 .99973863 .02286182 63.99 164.35)"/><ellipse cx="240.49" cy="53.35" fill="#f06724" rx="11.79" ry="15.59" transform="matrix(.02286182 -.99973863 .99973863 .02286182 181.68 292.56)"/><g fill="#231f20"><rect height="9.74" rx="3.83" transform="matrix(-.02286182 .99973863 -.99973863 -.02286182 278.7 -192.4)" width="18.46" x="224.15" y="35.14"/><rect height="9.74" rx="3.83" transform="matrix(-.02286182 .99973863 -.99973863 -.02286182 163.57 -84.94)" width="18.46" x="114.07" y="32.6"/></g></svg>